<svg width="20" height="20" viewBox="0 0 20 20" fill="none" xmlns="http://www.w3.org/2000/svg">
<path d="M0.416809 10C0.416809 15.525 4.81681 20 10.2435 20C14.586 20 18.2685 17.135 19.5668 13.1625C19.6593 12.6625 19.3551 12.4792 19.0943 12.4792C18.861 12.4792 18.2426 12.4875 17.4235 12.4917C18.016 15.2733 16.1051 15.86 16.1051 15.86C14.971 16.315 14.6676 16.9725 14.6676 16.9725C14.0585 17.8783 14.071 16.9025 14.071 16.9025C14.1393 15.8983 15.0835 15.3708 15.0835 15.3708C16.586 14.4792 16.1518 13.03 15.901 12.4583C15.2651 12.3683 14.8326 12.1108 14.5868 11.825C14.341 14.0458 13.496 16.38 9.73098 16.38C8.65848 16.38 7.78181 15.9925 7.09431 15.3508C6.84598 15.4633 5.84681 15.8008 4.49348 15.2633C4.49348 15.2633 4.23014 14.4258 5.50098 12.5133C5.28264 11.7133 5.17431 10.8633 5.16931 10.0133C5.17431 9.16334 5.28264 8.31334 5.50098 7.51334C4.23014 5.61334 4.49348 4.77584 4.49348 4.77584C5.84681 4.23834 6.84598 4.57584 7.09431 4.67584C7.78181 4.03834 8.65848 3.65084 9.73098 3.65084C13.506 3.65084 14.3368 5.98834 14.5785 8.21334C14.8735 7.86334 15.476 7.53834 16.3968 7.53834C17.7118 7.53834 18.7685 7.55084 19.0876 7.55084C19.3451 7.55084 19.6526 7.37584 19.5543 6.86334C18.2643 2.86251 14.5793 7.62939e-06 10.2435 7.62939e-06C4.81681 7.62939e-06 0.416809 4.47751 0.416809 10Z" fill="white"/>
</svg>
