<svg width="20" height="20" viewBox="0 0 20 20" fill="none" xmlns="http://www.w3.org/2000/svg">
<g clip-path="url(#clip0_1_46)">
<path d="M1.66669 5.83333L1.66669 14.1667C1.66669 16.4678 3.53217 18.3333 5.83335 18.3333H14.1667C16.4679 18.3333 18.3334 16.4678 18.3334 14.1667V5.83333C18.3334 3.53214 16.4679 1.66666 14.1667 1.66666H5.83335C3.53217 1.66666 1.66669 3.53214 1.66669 5.83333Z" stroke="white" stroke-width="2" stroke-linecap="round" stroke-linejoin="round"/>
<path d="M9.47501 6.66666C10.1685 6.56381 10.8769 6.68228 11.4992 7.00519C12.1215 7.32811 12.6262 7.83904 12.9414 8.4653C13.2566 9.09157 13.3663 9.80128 13.2549 10.4935C13.1436 11.1857 12.8167 11.8252 12.321 12.321C11.8252 12.8167 11.1857 13.1435 10.4935 13.2549C9.8013 13.3663 9.09158 13.2566 8.46532 12.9414C7.83905 12.6262 7.32812 12.1215 7.00521 11.4992C6.68229 10.8768 6.56383 10.1685 6.66667 9.47499C6.77158 8.76755 7.10123 8.11262 7.60693 7.60691C8.11263 7.10121 8.76757 6.77156 9.47501 6.66666Z" stroke="white" stroke-width="2" stroke-linecap="round" stroke-linejoin="round"/>
<path d="M5.41669 5.41666V5.40832" stroke="white" stroke-width="2" stroke-linecap="round" stroke-linejoin="round"/>
</g>
<defs>
<clipPath id="clip0_1_46">
<rect width="20" height="20" fill="white" transform="translate(0 20) rotate(-90)"/>
</clipPath>
</defs>
</svg>
