<svg width="123" height="86" viewBox="0 0 123 86" fill="none" xmlns="http://www.w3.org/2000/svg">
<g opacity="0.1">
<path opacity="0.1" d="M84.9934 83.0112V84.9934H83.0112" stroke="#20263C" stroke-miterlimit="10"/>
<path opacity="0.1" d="M79.2053 84.9934H4.88513" stroke="#20263C" stroke-miterlimit="10" stroke-dasharray="5.77 5.77"/>
<path opacity="0.1" d="M2.98222 84.9934H1V83.0112" stroke="#20263C" stroke-miterlimit="10"/>
<path opacity="0.1" d="M1 79.1987V4.88516" stroke="#20263C" stroke-miterlimit="10" stroke-dasharray="5.77 5.77"/>
<path opacity="0.1" d="M1 2.98222V1H2.98222" stroke="#20263C" stroke-miterlimit="10"/>
<path opacity="0.1" d="M6.79474 1H81.1083" stroke="#20263C" stroke-miterlimit="10" stroke-dasharray="5.77 5.77"/>
<path opacity="0.1" d="M83.0112 1H84.9934V2.98222" stroke="#20263C" stroke-miterlimit="10"/>
<path opacity="0.1" d="M84.9934 6.78809V81.1082" stroke="#20263C" stroke-miterlimit="10" stroke-dasharray="5.77 5.77"/>
</g>
<path d="M56.8723 47.9257C56.2016 47.1829 55.6328 46.3541 55.1808 45.4612C54.4667 44.0616 53.4797 42.8191 52.278 41.8069C51.0763 40.7947 49.6841 40.0332 48.1835 39.5674C46.8714 39.1617 45.4983 38.9895 44.1266 39.0586C45.125 39.0016 46.108 39.3239 46.8787 39.9611C47.6495 40.5983 48.151 41.5031 48.2826 42.4945C48.6436 44.6364 49.5929 46.6358 51.0246 48.2693C52.4562 49.9028 54.3139 51.1061 56.3899 51.7448C58.7639 52.4744 61.3078 52.4351 63.6581 51.6325C61.0401 51.2055 58.6462 49.8979 56.8723 47.9257Z" fill="white"/>
<path d="M39.9308 39.1908C40.2359 40.531 40.7725 41.8078 41.5166 42.9636C40.9733 42.1243 40.7642 41.1119 40.9305 40.1261C41.0968 39.1402 41.6266 38.2525 42.4152 37.638C44.0901 36.2526 45.3476 34.4294 46.0476 32.3715C46.7475 30.3137 46.8625 28.1019 46.3797 25.9826C45.8285 23.5581 44.5213 21.3716 42.6465 19.7386C43.5798 22.2336 43.6335 24.9726 42.7984 27.5023C42.4788 28.4573 42.0344 29.3659 41.477 30.2047C40.621 31.5223 40.0379 32.9982 39.7621 34.545C39.4863 36.0919 39.5235 37.6783 39.8714 39.2106L39.9308 39.1908Z" fill="#1852F2"/>
<path d="M46.2409 43.2345C45.7914 44.1282 45.0206 44.819 44.0832 45.1682C43.1458 45.5175 42.1109 45.4994 41.1862 45.1176C39.1484 44.3539 36.9384 44.172 34.8031 44.592C32.6678 45.012 30.6914 46.0176 29.0947 47.4963C27.2742 49.1899 26.0386 51.418 25.5663 53.8592C27.2604 51.8029 29.6051 50.3857 32.2133 49.8419C33.1932 49.6414 34.1942 49.5637 35.1933 49.6106C36.7604 49.6919 38.3278 49.4583 39.8031 48.9238C41.2783 48.3893 42.6316 47.5647 43.7829 46.4986C44.7905 45.5628 45.6268 44.4582 46.2541 43.2345H46.2409Z" fill="#EF0606"/>
<path d="M65.71 46C65.59 46 65.482 45.958 65.386 45.874C65.302 45.778 65.26 45.67 65.26 45.55V33.85C65.26 33.718 65.302 33.61 65.386 33.526C65.482 33.442 65.59 33.4 65.71 33.4H67.618C67.918 33.4 68.122 33.514 68.23 33.742L72.622 40.654V33.85C72.622 33.718 72.664 33.61 72.748 33.526C72.844 33.442 72.952 33.4 73.072 33.4H75.232C75.364 33.4 75.472 33.442 75.556 33.526C75.64 33.61 75.682 33.718 75.682 33.85V45.532C75.682 45.664 75.64 45.778 75.556 45.874C75.472 45.958 75.364 46 75.232 46H73.306C73.042 46 72.844 45.886 72.712 45.658L68.32 38.998V45.55C68.32 45.67 68.278 45.778 68.194 45.874C68.11 45.958 68.002 46 67.87 46H65.71ZM78.6475 46C78.5275 46 78.4195 45.958 78.3235 45.874C78.2395 45.778 78.1975 45.67 78.1975 45.55V33.85C78.1975 33.718 78.2395 33.61 78.3235 33.526C78.4195 33.442 78.5275 33.4 78.6475 33.4H86.9275C87.0595 33.4 87.1675 33.442 87.2515 33.526C87.3355 33.61 87.3775 33.718 87.3775 33.85V35.668C87.3775 35.788 87.3355 35.896 87.2515 35.992C87.1675 36.076 87.0595 36.118 86.9275 36.118H81.3655V38.764H86.5675C86.6995 38.764 86.8075 38.812 86.8915 38.908C86.9755 38.992 87.0175 39.1 87.0175 39.232V41.032C87.0175 41.152 86.9755 41.26 86.8915 41.356C86.8075 41.44 86.6995 41.482 86.5675 41.482H81.3655V45.55C81.3655 45.682 81.3235 45.79 81.2395 45.874C81.1555 45.958 81.0475 46 80.9155 46H78.6475ZM92.5465 46C92.4265 46 92.3185 45.958 92.2225 45.874C92.1385 45.778 92.0965 45.67 92.0965 45.55V36.226H88.8925C88.7725 36.226 88.6645 36.184 88.5685 36.1C88.4845 36.004 88.4425 35.896 88.4425 35.776V33.85C88.4425 33.718 88.4845 33.61 88.5685 33.526C88.6645 33.442 88.7725 33.4 88.8925 33.4H98.5765C98.7085 33.4 98.8165 33.442 98.9005 33.526C98.9845 33.61 99.0265 33.718 99.0265 33.85V35.776C99.0265 35.908 98.9845 36.016 98.9005 36.1C98.8165 36.184 98.7085 36.226 98.5765 36.226H95.3725V45.55C95.3725 45.67 95.3305 45.778 95.2465 45.874C95.1625 45.958 95.0545 46 94.9225 46H92.5465Z" fill="#C4C4C4"/>
<path d="M101.112 46C100.992 46 100.884 45.958 100.788 45.874C100.704 45.778 100.662 45.67 100.662 45.55V33.85C100.662 33.718 100.704 33.61 100.788 33.526C100.884 33.442 100.992 33.4 101.112 33.4H109.392C109.524 33.4 109.632 33.442 109.716 33.526C109.8 33.61 109.842 33.718 109.842 33.85V35.668C109.842 35.788 109.8 35.896 109.716 35.992C109.632 36.076 109.524 36.118 109.392 36.118H103.83V38.764H109.032C109.164 38.764 109.272 38.812 109.356 38.908C109.44 38.992 109.482 39.1 109.482 39.232V41.032C109.482 41.152 109.44 41.26 109.356 41.356C109.272 41.44 109.164 41.482 109.032 41.482H103.83V45.55C103.83 45.682 103.788 45.79 103.704 45.874C103.62 45.958 103.512 46 103.38 46H101.112ZM115.479 46C115.359 46 115.251 45.958 115.155 45.874C115.071 45.778 115.029 45.67 115.029 45.55V41.68L110.853 33.976C110.817 33.868 110.799 33.802 110.799 33.778C110.799 33.682 110.835 33.598 110.907 33.526C110.991 33.442 111.087 33.4 111.195 33.4H113.445C113.685 33.4 113.895 33.526 114.075 33.778L116.649 38.422L119.241 33.778C119.385 33.526 119.595 33.4 119.871 33.4H122.121C122.229 33.4 122.319 33.442 122.391 33.526C122.463 33.598 122.499 33.682 122.499 33.778C122.499 33.838 122.487 33.904 122.463 33.976L118.287 41.68V45.55C118.287 45.682 118.239 45.79 118.143 45.874C118.059 45.958 117.951 46 117.819 46H115.479Z" fill="#1852F2"/>
</svg>
