<svg width="16" height="20" viewBox="0 0 16 20" fill="none" xmlns="http://www.w3.org/2000/svg">
<path d="M1.94402 1.59584L0.417358 7.62939e-06H0.0831909L0.0831909 5.52834L9.88986 9.46834L0.0831909 13.9508L0.0831909 19.7475H0.417358L2.66152 17.8833C2.82736 17.7017 3.06986 17.6067 3.31402 17.6308H12.1332C12.4507 17.5733 12.7774 17.6767 13.0082 17.9L15.5532 20H15.8832V14.0458H15.549L13.0082 16.1458C12.7765 16.3733 12.4557 16.4808 12.1332 16.435H4.50486L15.8874 11.2083V10.6008L4.50486 6.10667H13.5724C13.8115 6.10667 13.8607 6.10668 14.0174 6.26334L15.5815 7.88001H15.9165L15.9165 0.0366745H15.5824L14.0565 1.59501C13.9532 1.73167 13.7799 1.80251 13.6115 1.77334H2.38902C2.21986 1.80251 2.04652 1.73251 1.94402 1.59584Z" fill="white"/>
</svg>
