<svg width="20" height="20" viewBox="0 0 20 20" fill="none" xmlns="http://www.w3.org/2000/svg">
<path d="M7.75681 2.22922C7.75681 2.86089 8.02264 3.41672 8.43681 3.82589C7.38014 5.33005 6.70014 7.35839 6.62764 9.60589L1.28931 8.43839L2.13598 4.72089C3.05931 4.72089 3.81348 3.97922 3.81348 3.06922C3.81348 2.14172 3.03931 1.39589 2.11514 1.39589C1.19098 1.39589 0.416809 2.13672 0.416809 3.06839C0.416809 3.71755 0.814309 4.27756 1.35764 4.55672L0.434309 8.66256C0.378476 8.86922 0.528476 9.07172 0.738476 9.12672L6.62348 10.4084C6.71764 12.6384 7.39681 14.6451 8.45431 16.1542C8.02264 16.5634 7.75681 17.1409 7.75681 17.7726C7.75681 20.1159 10.9476 20.8834 12.0385 18.7376C12.376 18.8134 12.736 18.8476 13.0951 18.8476C16.6793 18.8476 19.5835 14.8684 19.5835 9.98256C19.5835 5.07589 16.6793 1.09672 13.0951 1.09672C12.736 1.09672 12.3593 1.13422 12.021 1.22672C10.926 -0.875778 7.75848 -0.101614 7.75681 2.22922ZM12.2651 15.3326C11.3243 15.3326 10.5668 14.5909 10.5668 13.6592C10.5668 12.7492 11.3193 12.0067 12.2651 12.0067C13.1893 12.0067 13.9426 12.7484 13.9426 13.6592C13.9468 14.5867 13.1893 15.3326 12.2651 15.3326ZM16.2635 6.30005C17.8201 7.83422 17.8201 12.1634 16.2635 13.6984C16.1135 13.8676 15.8485 13.8676 15.6776 13.6984C15.5276 13.5509 15.5276 13.2892 15.6776 13.1417C16.8968 11.9701 16.9176 8.08339 15.6776 6.86089C15.5276 6.71339 15.5276 6.45172 15.6776 6.30422C15.8493 6.13172 16.1143 6.13172 16.2635 6.30005ZM13.946 6.33422C13.946 7.24422 13.1935 7.98589 12.2701 7.98589C11.3293 7.98589 10.5718 7.24422 10.5718 6.33422C10.5718 5.40672 11.3243 4.66089 12.2701 4.66089C13.1893 4.66506 13.946 5.40672 13.946 6.33422Z" fill="white"/>
</svg>
