<svg width="16" height="20" viewBox="0 0 16 20" fill="none" xmlns="http://www.w3.org/2000/svg">
<path d="M0.500018 0.833324C1.06292 1.63134 1.49344 2.5149 1.77502 3.44999C1.19794 3.95187 0.788928 4.61888 0.60329 5.3608C0.417652 6.10271 0.464348 6.88374 0.737062 7.59826C1.00978 8.31277 1.49535 8.92629 2.12812 9.35584C2.76088 9.78539 3.5103 10.0102 4.27502 9.99999H5.10835C5.14632 11.4645 4.82153 12.9156 4.16289 14.2241C3.50425 15.5327 2.53221 16.6581 1.33335 17.5C1.33335 17.5 8.83335 20.8333 12.1667 13.3333C13.3317 15.0496 13.9158 17.094 13.8334 19.1667C18 11.6667 13.8334 2.49999 4.25002 2.49999C4.0179 2.50076 3.78635 2.52308 3.55835 2.56666C2.7196 1.71616 1.66061 1.11597 0.500018 0.833324Z" fill="white"/>
</svg>
